<svg width="20" height="20" viewBox="0 0 20 20" fill="none" xmlns="http://www.w3.org/2000/svg">
<g clip-path="url(#clip0_152_9791)">
<path d="M10.2005 14.7143C9.99209 14.7143 9.79221 14.6315 9.64488 14.4842L2.09521 6.93451C2.61791 6.32438 3.29381 5.84937 4.0633 5.56909L13.2085 14.7143H10.2005Z" fill="#0C0C4F" fill-opacity="0.2"/>
<path fill-rule="evenodd" clip-rule="evenodd" d="M11.1769 6.07136C11.1769 5.63742 11.5287 5.28564 11.9626 5.28564H13.5341C16.1377 5.28564 18.2484 7.3963 18.2484 9.99993C18.2484 11.0605 17.8972 12.0414 17.3051 12.8294C17.0445 13.1763 16.5519 13.2463 16.205 12.9856C15.8581 12.7249 15.7881 12.2325 16.0488 11.8855C16.4434 11.3602 16.6769 10.7085 16.6769 9.99993C16.6769 8.26418 15.2698 6.85707 13.5341 6.85707H11.9626C11.5287 6.85707 11.1769 6.50529 11.1769 6.07136ZM7.70862 9.21422H4.89122C4.45728 9.21422 4.1055 9.56598 4.1055 9.99993C4.1055 10.4339 4.45728 10.7856 4.89122 10.7856H9.28006L7.70862 9.21422ZM0.962646 9.99993C0.962646 7.96304 2.25442 6.22787 4.06341 5.56897L5.36661 6.87217C3.77653 7.02802 2.53408 8.36887 2.53408 9.99993C2.53408 11.7357 3.94118 13.1428 5.67693 13.1428H7.24836C7.6823 13.1428 8.03408 13.4946 8.03408 13.9285C8.03408 14.3624 7.6823 14.7142 7.24836 14.7142H5.67693C3.0733 14.7142 0.962646 12.6036 0.962646 9.99993Z" fill="#11023B"/>
<path fill-rule="evenodd" clip-rule="evenodd" d="M1.19277 1.58731C1.49962 1.28047 1.9971 1.28047 2.30395 1.58731L18.0182 17.3016C18.325 17.6084 18.325 18.1059 18.0182 18.4128C17.7114 18.7196 17.2139 18.7196 16.9071 18.4128L1.19277 2.69848C0.885937 2.39163 0.885937 1.89415 1.19277 1.58731Z" fill="#11023B"/>
</g>
<defs>
<clipPath id="clip0_152_9791">
<rect width="18.8571" height="18.8571" fill="white" transform="translate(0.177002 0.571533)"/>
</clipPath>
</defs>
</svg>
